<svg xmlns="http://www.w3.org/2000/svg" xmlns:xlink="http://www.w3.org/1999/xlink" width="500" zoomAndPan="magnify" viewBox="0 0 375 374.999991" height="500" preserveAspectRatio="xMidYMid meet" version="1.0"><defs><g/></defs><g fill="#ffffff" fill-opacity="1"><g transform="translate(107.434116, 134.539583)"><g><path d="M 1.921875 100.75 C 1.492188 100.96875 1.066406 100.914062 0.640625 100.59375 C 0.210938 100.269531 0 99.84375 0 99.3125 L 0 77.171875 C 0 76.421875 0.320312 75.9375 0.96875 75.71875 L 72.515625 50.375 L 0.96875 25.34375 C 0.320312 25.238281 0 24.707031 0 23.75 L 0 1.765625 C 0 1.015625 0.210938 0.503906 0.640625 0.234375 C 1.066406 -0.0234375 1.492188 -0.0507812 1.921875 0.15625 L 127.390625 48.765625 C 128.023438 48.984375 128.34375 49.519531 128.34375 50.375 C 128.34375 51.226562 128.023438 51.765625 127.390625 51.984375 Z M 1.921875 100.75 "/></g></g></g><g fill="#ffffff" fill-opacity="1"><g transform="translate(133.561988, 235.083215)"><g><path d="M 64.90625 -20.875 L 86.640625 -20.875 L 86.640625 -1.28125 C 86.640625 -0.425781 86.117188 0 85.078125 0 L 66.609375 0 C 60.929688 0 55.015625 -0.425781 48.859375 -1.28125 C 42.703125 -2.132812 36.734375 -3.71875 30.953125 -6.03125 C 25.179688 -8.351562 19.953125 -11.617188 15.265625 -15.828125 C 10.578125 -20.046875 6.859375 -25.492188 4.109375 -32.171875 C 1.367188 -38.847656 0 -47.0625 0 -56.8125 C 0 -66.851562 1.394531 -75.28125 4.1875 -82.09375 C 6.976562 -88.90625 10.71875 -94.394531 15.40625 -98.5625 C 20.09375 -102.726562 25.347656 -105.898438 31.171875 -108.078125 C 36.992188 -110.265625 42.957031 -111.734375 49.0625 -112.484375 C 55.175781 -113.242188 61.023438 -113.625 66.609375 -113.625 L 85.078125 -113.625 C 86.117188 -113.625 86.640625 -113.195312 86.640625 -112.34375 L 86.640625 -67.75 L 64.90625 -67.75 L 64.90625 -92.890625 C 56.664062 -93.359375 49.300781 -92.429688 42.8125 -90.109375 C 36.332031 -87.796875 31.222656 -83.914062 27.484375 -78.46875 C 23.742188 -73.03125 21.875 -65.8125 21.875 -56.8125 C 21.875 -49.800781 22.890625 -44.023438 24.921875 -39.484375 C 26.960938 -34.941406 29.660156 -31.390625 33.015625 -28.828125 C 36.378906 -26.273438 40 -24.40625 43.875 -23.21875 C 47.757812 -22.039062 51.550781 -21.332031 55.25 -21.09375 C 58.945312 -20.851562 62.164062 -20.78125 64.90625 -20.875 Z M 64.90625 -20.875 "/></g></g></g></svg>